<svg width="126" height="126" viewBox="0 0 126 126" fill="none" xmlns="http://www.w3.org/2000/svg">
<rect width="126" height="126" rx="60" fill="white"/>
<path d="M112.5 0H13.5C6.04688 0 0 6.04688 0 13.5V112.5C0 119.953 6.04688 126 13.5 126H112.5C119.953 126 126 119.953 126 112.5V13.5C126 6.04688 119.953 0 112.5 0ZM77.9906 107.916C75.6281 108.338 74.7562 106.875 74.7562 105.666C74.7562 104.147 74.8125 96.3844 74.8125 90.1125C74.8125 85.725 73.35 82.9406 71.6344 81.4781C82.0406 80.325 93.0094 78.8906 93.0094 60.9188C93.0094 55.8 91.1813 53.2406 88.2 49.95C88.6781 48.7406 90.2812 43.7625 87.7219 37.2938C83.8125 36.0844 74.8688 42.3281 74.8688 42.3281C71.1563 41.2875 67.1344 40.7531 63.1688 40.7531C59.2031 40.7531 55.1812 41.2875 51.4688 42.3281C51.4688 42.3281 42.525 36.0844 38.6156 37.2938C36.0563 43.7344 37.6313 48.7125 38.1375 49.95C35.1563 53.2406 33.75 55.8 33.75 60.9188C33.75 78.8063 44.2406 80.325 54.6469 81.4781C53.2969 82.6875 52.0875 84.7687 51.6656 87.75C48.9937 88.9594 42.1594 91.0406 38.0812 83.8406C35.5219 79.3969 30.9094 79.0312 30.9094 79.0312C26.3531 78.975 30.6 81.9 30.6 81.9C33.6375 83.3063 35.775 88.7062 35.775 88.7062C38.5031 97.0594 51.5531 94.2469 51.5531 94.2469C51.5531 98.1563 51.6094 104.513 51.6094 105.666C51.6094 106.875 50.7656 108.338 48.375 107.916C29.8125 101.7 16.8187 84.0375 16.8187 63.3937C16.8187 37.575 36.5625 17.9719 62.3813 17.9719C88.2 17.9719 109.125 37.575 109.125 63.3937C109.153 84.0375 96.5531 101.728 77.9906 107.916ZM50.4 90.7313C49.8656 90.8438 49.3594 90.6187 49.3031 90.2531C49.2469 89.8312 49.6125 89.4656 50.1469 89.3531C50.6813 89.2969 51.1875 89.5219 51.2437 89.8875C51.3281 90.2531 50.9625 90.6188 50.4 90.7313ZM47.7281 90.4781C47.7281 90.8438 47.3062 91.1531 46.7437 91.1531C46.125 91.2094 45.7031 90.9 45.7031 90.4781C45.7031 90.1125 46.125 89.8031 46.6875 89.8031C47.2219 89.7469 47.7281 90.0563 47.7281 90.4781ZM43.875 90.1688C43.7625 90.5344 43.2 90.7031 42.7219 90.5344C42.1875 90.4219 41.8219 90 41.9344 89.6344C42.0469 89.2688 42.6094 89.1 43.0875 89.2125C43.65 89.3813 44.0156 89.8031 43.875 90.1688ZM40.4156 88.65C40.1625 88.9594 39.6281 88.9031 39.2062 88.4813C38.7844 88.1156 38.6719 87.5812 38.9531 87.3281C39.2062 87.0187 39.7406 87.075 40.1625 87.4969C40.5281 87.8625 40.6687 88.425 40.4156 88.65ZM37.8563 86.0906C37.6031 86.2594 37.125 86.0906 36.8156 85.6688C36.5062 85.2469 36.5062 84.7688 36.8156 84.5719C37.125 84.3188 37.6031 84.5156 37.8563 84.9375C38.1656 85.3594 38.1656 85.8656 37.8563 86.0906V86.0906ZM36.0281 83.3625C35.775 83.6156 35.3531 83.475 35.0437 83.1937C34.7344 82.8281 34.6781 82.4062 34.9312 82.2094C35.1844 81.9562 35.6062 82.0969 35.9156 82.3781C36.225 82.7437 36.2813 83.1656 36.0281 83.3625ZM34.1438 81.2812C34.0313 81.5344 33.6656 81.5906 33.3562 81.3937C32.9906 81.225 32.8219 80.9156 32.9344 80.6625C33.0469 80.4937 33.3563 80.4094 33.7219 80.55C34.0875 80.7469 34.2563 81.0562 34.1438 81.2812Z" fill="black"/>
</svg>
