<svg width="126" height="126" viewBox="0 0 126 126" fill="none" xmlns="http://www.w3.org/2000/svg">
<g clip-path="url(#clip0_25_5)">
<path d="M107.357 107.359H88.6883V78.122C88.6883 71.1501 88.5637 62.1751 78.9784 62.1751C69.2547 62.1751 67.7668 69.7715 67.7668 77.6145V107.357H49.0982V47.2338H67.0202V55.4503H67.2712C69.0648 52.3835 71.6566 49.8606 74.7706 48.1503C77.8846 46.44 81.4042 45.6063 84.9545 45.738C103.877 45.738 107.365 58.1844 107.365 74.3764L107.357 107.359V107.359ZM28.0325 39.0157C22.049 39.0167 17.1975 34.1667 17.1965 28.1832C17.1956 22.1996 22.0451 17.3481 28.0286 17.3472C34.0121 17.3457 38.8636 22.1957 38.8646 28.1792C38.8651 31.0526 37.7242 33.8086 35.6928 35.8408C33.6614 37.873 30.906 39.0151 28.0325 39.0157M37.3674 107.36H18.6785V47.2338H37.3669V107.359L37.3674 107.36ZM116.665 0.00886521H9.29743C4.22297 -0.0482285 0.0615273 4.01675 -0.000488281 9.0912V116.906C0.0595586 121.983 4.22051 126.052 9.29693 125.999H116.665C121.752 126.062 125.929 121.993 126 116.906V9.08283C125.927 3.99854 121.749 -0.0659473 116.665 0.000498021" fill="#0A66C2"/>
</g>
<defs>
<clipPath id="clip0_25_5">
<rect width="126" height="126" fill="white"/>
</clipPath>
</defs>
</svg>
